<?xml version="1.0" encoding="utf-8"?>
<!-- Generator: Adobe Illustrator 22.0.1, SVG Export Plug-In . SVG Version: 6.00 Build 0)  -->
<svg version="1.1" id="레이어_1" xmlns="http://www.w3.org/2000/svg" xmlns:xlink="http://www.w3.org/1999/xlink" x="0px"
	 y="0px" viewBox="0 0 279 40.5" style="enable-background:new 0 0 279 40.5;" preserveAspectRatio="xMinYMid" xml:space="preserve">
<style type="text/css">
	.st0{fill:#231815;}
	.st1{fill:#0099A8;}
</style>
<g>
	<path class="st0" d="M82.9,13.3c0.2,0,0.4-0.1,0.6-0.1c0.3,0,0.6,0.1,0.7,0.2c0.1,0.1,0.2,0.3,0.2,0.5c0,0.3-0.2,0.6-0.5,0.6v0
		c0.2,0.1,0.3,0.2,0.4,0.5c0.1,0.3,0.1,0.6,0.2,0.7h-0.3c0-0.1-0.1-0.3-0.2-0.6c-0.1-0.3-0.2-0.5-0.5-0.5h-0.3v1.1h-0.3V13.3
		L82.9,13.3z M83.2,14.4h0.3c0.3,0,0.6-0.2,0.6-0.5c0-0.3-0.2-0.5-0.6-0.5c-0.2,0-0.3,0-0.3,0V14.4L83.2,14.4z"/>
	<path class="st0" d="M83.6,16.6c-1.2,0-2.1-1-2.1-2.1c0-1.2,1-2.1,2.1-2.1c1.2,0,2.1,1,2.1,2.1C85.7,15.7,84.7,16.6,83.6,16.6
		L83.6,16.6z M83.6,12.6c-1.1,0-1.9,0.9-1.9,1.9c0,1.1,0.9,1.9,1.9,1.9c1.1,0,1.9-0.9,1.9-1.9C85.5,13.4,84.6,12.6,83.6,12.6
		L83.6,12.6z"/>
	<path class="st0" d="M79,19.4h-5.6v-0.9c0-0.9-0.2-1.4-0.3-1.6c-0.1-0.2-0.5-0.5-0.9-0.5c-0.5,0-0.8,0.2-1,0.5
		c-0.2,0.3-0.2,0.7-0.3,1.3c0,0.8,0.1,1.4,0.3,1.8c0.2,0.4,0.8,0.9,1.8,1.4c2.8,1.6,4.6,3,5.3,4c0.7,1,1.1,2.7,1.1,5.1
		c0,4.5-2.8,6.6-7,6.6c-1.7,0-3.5-0.3-4.6-0.9c-1.2-0.6-2-1.4-2.4-2.4c-0.4-1-0.6-1.8-0.6-3.6v-1.3h5.6V31c0,0.9,0.2,1.3,0.4,1.7
		c0.4,0.6,1.8,0.6,2.2-0.1c0.3-0.4,0.3-1,0.3-1.6c0-1.4-0.2-2.1-0.6-2.6c-0.4-0.4-1.4-1.1-3-2.1c-1.6-1-2.6-1.8-3.1-2.2
		c-0.5-0.5-0.9-1.1-1.3-1.9c-0.3-0.8-0.5-1.8-0.5-3.1c0-1.8,0.2-3.1,0.7-4c0.5-0.8,1.2-1.5,2.3-2c1.1-0.5,2.3-0.7,3.8-0.7
		c1.6,0,3,0.4,4.2,1c1.1,0.5,1.9,1.2,2.3,2c0.4,0.8,0.6,1.8,0.6,3.7V19.4L79,19.4z M62,36.6h-6V12.9h6V36.6L62,36.6z M34,36.6h-6
		V12.9h6V36.6L34,36.6z M37.7,12.9h5.6c3,0,4.4,0.1,5.5,0.4c1.1,0.3,1.9,0.7,2.4,1.3c0.6,0.6,0.9,1.3,1,2.1c0.1,0.8,0.2,2.3,0.2,4.5
		v8.3c0,2.1-0.1,3.5-0.3,4.3c-0.2,0.7-0.6,1.3-1.1,1.7c-0.5,0.4-1.1,0.7-1.9,0.8c-0.8,0.2-1.9,0.2-3.4,0.2h-8.2V12.9L37.7,12.9z
		 M43.4,17v15.6l2.4-0.1c0.6,0,1-0.7,1.1-1.5V18.6c0-0.8-0.3-1.4-1.1-1.5L43.4,17L43.4,17z"/>
	<path class="st1" d="M23.9,0.8h-9.9c-0.6,0-1.1,0.5-1.1,1.2v8.4c-0.4,2.1-2.3,2.3-2.3,2.3l0,0H2.2c-0.6,0-1.2,0.5-1.2,1.2v9.9
		c0,0.6,0.5,1.2,1.2,1.2H12c0.6,0,1.2-0.5,1.2-1.2v-8.2l0,0c0.4-2,1.7-2.4,2.3-2.5h8.5c0.6,0,1.2-0.5,1.2-1.2V2
		C25.1,1.4,24.6,0.8,23.9,0.8"/>
	<path class="st0" d="M98,27.2c-1.7,0-2.4,1.3-2.4,3.8c0,2.5,0.8,3.8,2.4,3.8c1.7,0,2.4-1.3,2.4-3.8C100.5,28.5,99.7,27.2,98,27.2
		 M98,36.5c-2.9,0-4.5-2-4.5-5.5s1.6-5.5,4.5-5.5c2.9,0,4.5,2,4.5,5.5S101,36.5,98,36.5"/>
	<path class="st0" d="M103.9,36.4v-7.7h1.7v0.8c0.7-0.5,1.5-1,2.4-1c1.5,0,2.3,1,2.3,2.6v5.3h-1.8v-5c0-1-0.3-1.4-1-1.4
		c-0.8,0-1.4,0.5-1.7,0.8v5.6H103.9L103.9,36.4z"/>
	<path class="st0" d="M116.4,31.6c0-1.1-0.6-1.7-1.5-1.7c-0.9,0-1.5,0.6-1.5,1.7H116.4L116.4,31.6z M113.4,32.8
		c0,1.6,0.7,2.2,1.6,2.2c0.9,0,1.3-0.4,1.7-0.9l1.3,0.8c-0.7,1.1-1.8,1.6-3.2,1.6c-2,0-3.3-1.6-3.3-4c0-2.4,1.3-4,3.4-4
		c2,0,3.1,1.7,3.1,3.5v0.8H113.4L113.4,32.8z"/>
	<path class="st0" d="M129.4,28.5c-0.3-0.8-0.9-1.4-1.9-1.4c-0.9,0-1.5,0.4-1.5,1.2c0,1.8,5.5,1.5,5.5,4.9c0,2.2-1.4,3.3-3.8,3.3
		c-1.8,0-3.4-1-4-2.5l1.7-0.7c0.5,1,1.1,1.7,2.3,1.7c1,0,1.8-0.4,1.8-1.4c0-2.1-5.5-1.7-5.5-5c0-1.9,1.6-3,3.5-3
		c1.7,0,3.1,0.9,3.8,2.4L129.4,28.5L129.4,28.5z"/>
	<path class="st0" d="M136,30c-1,0-1.5,0.8-1.5,2.5c0,1.7,0.5,2.5,1.5,2.5c1,0,1.5-0.8,1.5-2.5C137.5,30.8,137,30,136,30 M136,28.5
		c2.1,0,3.4,1.6,3.4,4c0,2.5-1.3,4-3.4,4c-2.1,0-3.4-1.6-3.4-4C132.6,30.1,133.9,28.5,136,28.5"/>
	<polygon class="st0" points="140.8,25.6 142.7,25.6 142.7,36.4 140.8,36.4 140.8,25.6 	"/>
	<path class="st0" d="M151.1,28.6v7.7h-1.7v-0.8c-0.7,0.5-1.5,1-2.4,1c-1.5,0-2.3-1-2.3-2.6v-5.3h1.8v5c0,1,0.3,1.4,1,1.4
		c0.8,0,1.4-0.5,1.7-0.8v-5.6H151.1L151.1,28.6z"/>
	<path class="st0" d="M153.3,28.6v-2.6h1.8v2.6h1.5v1.5h-1.5v4.4c0,0.4,0.2,0.5,0.7,0.5c0.3,0,0.6-0.1,0.8-0.2v1.5
		c-0.5,0.1-0.9,0.1-1.5,0.1c-1.4,0-1.9-0.7-1.9-1.8v-4.6h-1.1v-1.5H153.3L153.3,28.6z"/>
	<path class="st0" d="M160,36.4h-1.8v-7.7h1.8V36.4L160,36.4z M158.2,25.5h1.8v1.7h-1.8V25.5L158.2,25.5z"/>
	<path class="st0" d="M164.9,30c-1,0-1.5,0.8-1.5,2.5c0,1.7,0.5,2.5,1.5,2.5c1,0,1.5-0.8,1.5-2.5C166.4,30.8,165.9,30,164.9,30
		 M164.9,28.5c2.1,0,3.4,1.6,3.4,4c0,2.5-1.3,4-3.4,4c-2.1,0-3.4-1.6-3.4-4C161.5,30.1,162.8,28.5,164.9,28.5"/>
	<path class="st0" d="M169.5,36.4v-7.7h1.7v0.8c0.7-0.5,1.5-1,2.4-1c1.5,0,2.3,1,2.3,2.6v5.3H174v-5c0-1-0.3-1.4-0.9-1.4
		c-0.8,0-1.4,0.5-1.7,0.8v5.6H169.5L169.5,36.4z"/>
	<polygon class="st0" points="178.1,34.3 180.1,34.3 180.1,36.4 178.1,36.4 178.1,34.3 	"/>
	<path class="st0" d="M190.8,27.2c-1.7,0-2.4,1.3-2.4,3.8c0,2.5,0.8,3.8,2.4,3.8c1.7,0,2.4-1.3,2.4-3.8
		C193.3,28.5,192.5,27.2,190.8,27.2 M190.8,36.5c-2.9,0-4.5-2-4.5-5.5s1.6-5.5,4.5-5.5c2.9,0,4.5,2,4.5,5.5S193.7,36.5,190.8,36.5"
		/>
	<path class="st0" d="M196.7,36.4v-7.7h1.7v0.8c0.7-0.5,1.5-1,2.4-1c1.5,0,2.3,1,2.3,2.6v5.3h-1.8v-5c0-1-0.3-1.4-1-1.4
		c-0.8,0-1.4,0.5-1.7,0.8v5.6H196.7L196.7,36.4z"/>
	<path class="st0" d="M209.2,31.6c0-1.1-0.6-1.7-1.5-1.7c-0.9,0-1.5,0.6-1.5,1.7H209.2L209.2,31.6z M206.2,32.8
		c0,1.6,0.7,2.2,1.6,2.2c0.9,0,1.3-0.4,1.7-0.9l1.3,0.8c-0.7,1.1-1.8,1.6-3.2,1.6c-2,0-3.3-1.6-3.3-4c0-2.4,1.3-4,3.4-4
		c2,0,3.1,1.7,3.1,3.5v0.8H206.2L206.2,32.8z"/>
	<path class="st0" d="M222.6,28.8c-0.3-0.9-0.9-1.5-1.9-1.5c-1.4,0-2.2,1.3-2.2,3.8c0,2.5,0.7,3.8,2.3,3.8c0.9,0,1.5-0.3,2.1-1.6
		l1.9,0.5c-0.6,1.9-2,2.8-4,2.8c-2.7,0-4.3-2-4.3-5.5c0-3.5,1.6-5.5,4.3-5.5c2.1,0,3.2,0.9,3.7,2.8L222.6,28.8L222.6,28.8z"/>
	<path class="st0" d="M228.8,30c-1,0-1.5,0.8-1.5,2.5c0,1.7,0.5,2.5,1.5,2.5c1,0,1.5-0.8,1.5-2.5C230.3,30.8,229.8,30,228.8,30
		 M228.8,28.5c2.1,0,3.4,1.6,3.4,4c0,2.5-1.3,4-3.4,4c-2.1,0-3.4-1.6-3.4-4C225.4,30.1,226.7,28.5,228.8,28.5"/>
	<path class="st0" d="M233.4,36.4v-7.7h1.7v0.8c0.7-0.6,1.3-1,2.3-1c0.8,0,1.6,0.4,1.9,1.1c0.6-0.6,1.4-1.1,2.7-1.1
		c0.8,0,1.9,0.5,1.9,2.3v5.6H242V31c0-0.6-0.3-1-0.9-1c-0.5,0-1.1,0.4-1.5,0.8v5.6h-1.8V31c0-0.6-0.3-1-0.9-1
		c-0.5,0-1.1,0.4-1.5,0.8v5.6H233.4L233.4,36.4z"/>
	<path class="st0" d="M247.6,34.4c0.4,0.3,0.8,0.7,1.4,0.7c1.1,0,1.7-0.9,1.7-2.5c0-1.6-0.6-2.5-1.7-2.5c-0.8,0-1,0.4-1.4,0.7V34.4
		L247.6,34.4z M245.8,28.6h1.8v0.7c0.5-0.5,1.1-0.9,2-0.9c2,0,3.1,1.8,3.1,4.2c0,1.9-1.1,3.8-3.1,3.8c-0.6,0-1.5-0.4-1.9-0.9h0v3.5
		h-1.8V28.6L245.8,28.6z"/>
	<path class="st0" d="M257.8,32.7c-1.2,0.2-2.6,0.5-2.6,1.6c0,0.6,0.4,0.9,0.9,0.9c0.6,0,1.3-0.5,1.7-0.8V32.7L257.8,32.7z
		 M258,36.4l-0.1-0.7c-0.7,0.5-1.4,0.8-2.4,0.8c-1.4,0-2.1-1-2.1-2c0-1.8,1.4-2.7,4.4-3v-0.7c0-0.6-0.5-0.9-1.1-0.9
		c-0.9,0-1.3,0.5-1.7,1l-1.2-0.9c0.5-0.8,1.8-1.4,2.9-1.4c2.1,0,3,0.8,3,3.1v3.6c0,0.4,0,0.8,0.2,1.1H258L258,36.4z"/>
	<path class="st0" d="M261.5,36.4v-7.7h1.7v0.8c0.7-0.5,1.5-1,2.4-1c1.5,0,2.3,1,2.3,2.6v5.3H266v-5c0-1-0.3-1.4-0.9-1.4
		c-0.8,0-1.4,0.5-1.7,0.8v5.6H261.5L261.5,36.4z"/>
	<path class="st0" d="M268.9,37.6c0.3,0.1,0.5,0.1,0.8,0.1c0.6,0,1-0.2,1.2-0.6c0.2-0.4,0.3-0.6,0.3-0.9c0-0.3-0.1-0.6-0.2-0.9
		l-2.1-6.6h1.9l1.3,4.7h0l1.3-4.7h1.8l-2.4,7.7c-0.8,2.2-1.5,2.8-3,2.8c-0.4,0-0.7,0-0.9-0.1V37.6L268.9,37.6z"/>
	<polygon class="st0" points="275.5,34.3 277.6,34.3 277.6,36.4 275.5,36.4 275.5,34.3 	"/>
</g>
</svg>
