<?xml version="1.0" standalone="no"?>
<!DOCTYPE svg PUBLIC "-//W3C//DTD SVG 20010904//EN"
 "http://www.w3.org/TR/2001/REC-SVG-20010904/DTD/svg10.dtd">
<svg version="1.0" xmlns="http://www.w3.org/2000/svg"
 width="164.000000pt" height="88.000000pt" viewBox="0 0 164.000000 88.000000"
 preserveAspectRatio="xMidYMid meet">

<g transform="translate(0.000000,88.000000) scale(0.100000,-0.100000)"
fill="#000000" stroke="none">
<path d="M310 723 c0 -113 -9 -123 -109 -123 -55 0 -82 -4 -90 -14 -8 -9 -11
-45 -9 -98 l3 -83 100 0 100 0 3 85 c2 46 8 90 13 97 7 8 43 13 97 15 l87 3 0
95 0 95 -97 3 -98 3 0 -78z"/>
<path d="M1245 601 c-55 -23 -79 -94 -50 -154 9 -19 43 -55 76 -81 48 -38 59
-51 59 -75 0 -21 -6 -32 -20 -36 -25 -8 -50 10 -50 35 0 24 -24 42 -52 38 -18
-2 -24 -10 -26 -39 -6 -71 73 -122 156 -99 58 15 77 42 77 107 0 59 6 51 -109
150 -30 25 -37 37 -34 60 4 40 47 40 66 0 11 -23 19 -28 45 -25 37 4 45 25 26
70 -20 48 -105 73 -164 49z"/>
<path d="M567 594 c-4 -4 -7 -94 -7 -200 l0 -194 24 -6 c14 -3 33 -4 43 -2 17
3 18 17 18 203 l0 200 -35 3 c-20 2 -39 0 -43 -4z"/>
<path d="M724 587 c-2 -7 -3 -98 -2 -202 l3 -190 86 0 c95 0 130 12 148 52 14
30 15 262 1 298 -6 15 -24 32 -45 40 -44 19 -184 20 -191 2z m151 -192 l0
-130 -32 -3 -33 -3 0 136 0 136 33 -3 32 -3 0 -130z"/>
<path d="M1045 588 c-3 -8 -4 -99 -3 -203 3 -208 3 -206 64 -191 l24 6 -2 198
-3 197 -38 3 c-24 2 -39 -1 -42 -10z"/>
<path d="M1514 576 c1 -8 5 -18 8 -22 4 -3 5 1 4 10 -1 8 -5 18 -8 22 -4 3 -5
-1 -4 -10z"/>
</g>
</svg>
